<svg width="128" height="128" viewBox="0 0 128 128" fill="none" xmlns="http://www.w3.org/2000/svg">
<rect width="128" height="128" fill="white"/>
<g clip-path="url(#clip0_1046_5166)">
<rect width="96" height="96" transform="translate(16 16)" fill="white"/>
<path d="M31.0322 112.001H26.668V107.638H31.0322V112.001ZM79.0322 112.001H74.668V98.9102H79.0322V112.001ZM96.4834 112.001H92.1191V107.638H96.4834V112.001ZM83.3984 112H79.0342V103.272H83.3984V112ZM39.7617 103.273H35.3984V107.637H31.0342V98.9102H39.7617V103.273ZM96.4941 107.637H87.7666V103.272H96.4941V107.637ZM92.1172 81.4551H87.7646V85.8184H83.4004V90.1826H83.3984V98.9102H79.0342V90.1826H79.0322V94.5469H74.668V90.1826H74.666V103.274H70.3027V90.1826H70.2998V94.5469H65.9365V90.1826H52.8438V94.5469H44.1279V98.9092H35.4004V94.5459H39.7529V90.1826H35.4004V81.4541H39.7529V77.0918H92.1172V81.4551ZM87.7646 103.273H83.4004V98.9102H87.7646V103.273ZM31.0322 98.9092H26.668V94.5459H31.0322V98.9092ZM35.3984 94.5469H31.0342V90.1826H35.3984V94.5469ZM96.4854 72.7285H92.1191V77.0908H44.1191V72.7275H48.4854V68.3643H96.4854V72.7285ZM96.4873 64.001H96.4854V68.3633H48.4854V64H52.8516V59.6377H96.4873V64.001ZM100.854 59.6367H57.2178V50.9102H100.854V59.6367ZM100.852 33.4551H100.851V37.8184H100.848V42.1826H100.846V46.5459H100.856V50.9092H61.584V46.5459H65.9365V42.1826H70.3027V37.8184H74.668V33.4551H61.5791V29.0918H100.852V33.4551ZM96.4854 24.7275H100.852V29.0908H87.7607V24.7285H83.4004V29.0908H65.9463V24.7275H74.667V20.3643H96.4854V24.7275ZM92.1191 16V20.3633H79.0283V16H92.1191Z" fill="#141514"/>
</g>
<defs>
<clipPath id="clip0_1046_5166">
<rect width="96" height="96" fill="white" transform="translate(16 16)"/>
</clipPath>
</defs>
</svg>
